<?xml version="1.0" encoding="utf-8"?>
<!-- Generator: Adobe Illustrator 19.0.0, SVG Export Plug-In . SVG Version: 6.00 Build 0)  -->
<svg version="1.1" id="Layer_1" xmlns="http://www.w3.org/2000/svg" xmlns:xlink="http://www.w3.org/1999/xlink" x="0px" y="0px"
	 viewBox="0 0 308 293.5" style="enable-background:new 0 0 308 293.5;" xml:space="preserve">
<style type="text/css">
	.st0{fill:#03060C;}
	.st1{fill:#0B5CDD;}
	.st2{fill:none;stroke:#000000;stroke-width:16;stroke-miterlimit:10;}
	.st3{fill:none;stroke:#0B5CDD;stroke-width:16;stroke-miterlimit:10;}
</style>
<g id="XMLID_1_">
	<g id="XMLID_10_">
		<path id="XMLID_54_" class="st0" d="M164.7,42.5l-28.2,133.5c-6,28.8-18.6,46.5-49.5,46.5c-17.9,0-27.8-10.9-27.8-26.5
			c0-12.8,8.1-25.2,22.9-25.2c7.5,0,18.4,0.6,18.4,12.6c0,2.1-0.4,4.7-1.1,7.5c-4.7-4-7.5-4.9-11.3-4.9c-8.7,0-13.2,7-13.2,13.9
			c0,9.8,7.3,13.2,12.8,13.2c8.5,0,13.5-3.8,17.9-23.1l29.5-134.3c-16.4,6.8-26.5,21.1-26.5,41.2c0,9.6,2.4,11.1,2.6,12.8
			c-13,0-20.1-4.7-20.1-18.2c0-25,34.6-48.9,66-48.9H164.7z"/>
	</g>
	<g id="XMLID_9_">
		<path id="XMLID_52_" class="st0" d="M140.3,190.6c23.2,5.1,46.4,28.8,74.9,28.8c6,0,12.3-0.9,18.7-3.6c-2.2,21.4-11.1,35-23.2,35
			c-31.9,0-60-50.6-99.4-50.6c-1.8,0-3.3,0-5.1,0.2l33.2-154.5c-19.4,8-31.2,24.7-31.2,48.6c0,11.4,2.9,13.2,3.1,15.2
			c-15.4,0-23.9-5.6-23.9-21.6c0-29.7,41-58,78.3-58c3.1,0,6,0.2,8.9,0.4L140.3,190.6z"/>
	</g>
	<g id="XMLID_7_">
		<path id="XMLID_50_" class="st1" d="M171.7,43.3l-28.2,133.5c-6,28.8-18.6,46.5-49.5,46.5c-17.9,0-27.8-10.9-27.8-26.5
			c0-12.8,8.1-25.2,22.9-25.2c7.5,0,18.4,0.6,18.4,12.6c0,2.1-0.4,4.7-1.1,7.5c-4.7-4-7.5-4.9-11.3-4.9c-8.7,0-13.2,7-13.2,13.9
			c0,9.8,7.3,13.2,12.8,13.2c8.5,0,13.5-3.8,17.9-23.1l29.5-134.3c-16.4,6.8-26.5,21.1-26.5,41.2c0,9.6,2.4,11.1,2.6,12.8
			c-13,0-20.1-4.7-20.1-18.2c0-25,34.6-48.9,66-48.9H171.7z"/>
	</g>
	<g id="XMLID_6_">
		<path id="XMLID_48_" class="st1" d="M147.3,191.4c23.2,5.1,46.4,28.8,74.9,28.8c6,0,12.3-0.9,18.7-3.6c-2.2,21.4-11.1,35-23.2,35
			c-31.9,0-60-50.6-99.4-50.6c-1.8,0-3.3,0-5.1,0.2l33.2-154.5c-19.4,8-31.2,24.7-31.2,48.6c0,11.4,2.9,13.2,3.1,15.2
			c-15.4,0-23.9-5.6-23.9-21.6c0-29.7,41-58,78.3-58c3.1,0,6,0.2,8.9,0.4L147.3,191.4z"/>
	</g>
	<ellipse id="XMLID_8_" class="st2" cx="150" cy="148.5" rx="142" ry="136.9"/>
	<ellipse id="XMLID_11_" class="st3" cx="158" cy="148.5" rx="142" ry="136.9"/>
</g>
<g id="XMLID_47_">
</g>
<g id="XMLID_56_">
</g>
<g id="XMLID_57_">
</g>
<g id="XMLID_58_">
</g>
<g id="XMLID_59_">
</g>
<g id="XMLID_60_">
</g>
<g id="XMLID_61_">
</g>
<g id="XMLID_62_">
</g>
<g id="XMLID_63_">
</g>
<g id="XMLID_64_">
</g>
<g id="XMLID_65_">
</g>
<g id="XMLID_66_">
</g>
<g id="XMLID_67_">
</g>
<g id="XMLID_68_">
</g>
<g id="XMLID_69_">
</g>
</svg>
